<mxfile host="app.diagrams.net" agent="Mozilla/5.0 (Windows NT 10.0; Win64; x64) AppleWebKit/537.36 (KHTML, like Gecko) Chrome/136.0.0.0 Safari/537.36 Edg/136.0.0.0" version="26.2.13">
  <diagram name="Layered Diagram" id="qVw3ZeCgsZaBuNKjIFqS">
    <mxGraphModel dx="1246" dy="668" grid="1" gridSize="10" guides="1" tooltips="1" connect="1" arrows="1" fold="1" page="1" pageScale="1" pageWidth="827" pageHeight="1169" math="0" shadow="0">
      <root>
        <mxCell id="0" />
        <mxCell id="1" parent="0" />
        <mxCell id="XCnNXTIFXbrZ1xSmHSeM-22" value="" style="rounded=0;whiteSpace=wrap;html=1;" vertex="1" parent="1">
          <mxGeometry x="420" y="400" width="370" height="180" as="geometry" />
        </mxCell>
        <mxCell id="XCnNXTIFXbrZ1xSmHSeM-5" value="" style="rounded=0;whiteSpace=wrap;html=1;fillColor=#dae8fc;strokeColor=#6c8ebf;gradientColor=none;" vertex="1" parent="1">
          <mxGeometry width="800" height="140" as="geometry" />
        </mxCell>
        <mxCell id="XCnNXTIFXbrZ1xSmHSeM-3" value="Application" style="rounded=1;whiteSpace=wrap;html=1;" vertex="1" parent="1">
          <mxGeometry x="110" y="40" width="190" height="60" as="geometry" />
        </mxCell>
        <mxCell id="XCnNXTIFXbrZ1xSmHSeM-4" value="Tests" style="rounded=1;whiteSpace=wrap;html=1;" vertex="1" parent="1">
          <mxGeometry x="390" y="40" width="190" height="60" as="geometry" />
        </mxCell>
        <mxCell id="XCnNXTIFXbrZ1xSmHSeM-6" value="" style="rounded=0;whiteSpace=wrap;html=1;" vertex="1" parent="1">
          <mxGeometry y="200" width="370" height="160" as="geometry" />
        </mxCell>
        <mxCell id="XCnNXTIFXbrZ1xSmHSeM-7" value="" style="rounded=0;whiteSpace=wrap;html=1;" vertex="1" parent="1">
          <mxGeometry x="420" y="200" width="370" height="160" as="geometry" />
        </mxCell>
        <mxCell id="XCnNXTIFXbrZ1xSmHSeM-8" value="Services" style="text;html=1;align=center;verticalAlign=middle;whiteSpace=wrap;rounded=0;" vertex="1" parent="1">
          <mxGeometry x="155" y="330" width="60" height="30" as="geometry" />
        </mxCell>
        <mxCell id="XCnNXTIFXbrZ1xSmHSeM-9" value="Infrastructure" style="text;html=1;align=center;verticalAlign=middle;whiteSpace=wrap;rounded=0;" vertex="1" parent="1">
          <mxGeometry x="580" y="330" width="60" height="30" as="geometry" />
        </mxCell>
        <mxCell id="XCnNXTIFXbrZ1xSmHSeM-10" value="Device Service" style="rounded=1;whiteSpace=wrap;html=1;" vertex="1" parent="1">
          <mxGeometry x="20" y="220" width="100" height="30" as="geometry" />
        </mxCell>
        <mxCell id="XCnNXTIFXbrZ1xSmHSeM-11" value="Document Service" style="rounded=1;whiteSpace=wrap;html=1;" vertex="1" parent="1">
          <mxGeometry x="200" y="220" width="120" height="30" as="geometry" />
        </mxCell>
        <mxCell id="XCnNXTIFXbrZ1xSmHSeM-12" value="Renishaw Analysis Service" style="rounded=1;whiteSpace=wrap;html=1;" vertex="1" parent="1">
          <mxGeometry x="180" y="290" width="170" height="30" as="geometry" />
        </mxCell>
        <mxCell id="XCnNXTIFXbrZ1xSmHSeM-13" value="Languages" style="rounded=1;whiteSpace=wrap;html=1;" vertex="1" parent="1">
          <mxGeometry x="440" y="210" width="120" height="30" as="geometry" />
        </mxCell>
        <mxCell id="XCnNXTIFXbrZ1xSmHSeM-14" value="Unit" style="rounded=1;whiteSpace=wrap;html=1;" vertex="1" parent="1">
          <mxGeometry x="590" y="210" width="120" height="30" as="geometry" />
        </mxCell>
        <mxCell id="XCnNXTIFXbrZ1xSmHSeM-15" value="Settings" style="rounded=1;whiteSpace=wrap;html=1;" vertex="1" parent="1">
          <mxGeometry x="440" y="250" width="120" height="30" as="geometry" />
        </mxCell>
        <mxCell id="XCnNXTIFXbrZ1xSmHSeM-16" value="Graph" style="rounded=1;whiteSpace=wrap;html=1;" vertex="1" parent="1">
          <mxGeometry x="590" y="250" width="120" height="30" as="geometry" />
        </mxCell>
        <mxCell id="XCnNXTIFXbrZ1xSmHSeM-17" value="" style="rounded=0;whiteSpace=wrap;html=1;" vertex="1" parent="1">
          <mxGeometry y="400" width="370" height="180" as="geometry" />
        </mxCell>
        <mxCell id="XCnNXTIFXbrZ1xSmHSeM-18" value="Model" style="rounded=1;whiteSpace=wrap;html=1;" vertex="1" parent="1">
          <mxGeometry x="20" y="520" width="120" height="40" as="geometry" />
        </mxCell>
        <mxCell id="XCnNXTIFXbrZ1xSmHSeM-19" value="Math" style="rounded=1;whiteSpace=wrap;html=1;" vertex="1" parent="1">
          <mxGeometry x="440" y="410" width="120" height="40" as="geometry" />
        </mxCell>
        <mxCell id="XCnNXTIFXbrZ1xSmHSeM-20" value="DataAccess" style="rounded=1;whiteSpace=wrap;html=1;" vertex="1" parent="1">
          <mxGeometry x="20" y="420" width="120" height="40" as="geometry" />
        </mxCell>
        <mxCell id="XCnNXTIFXbrZ1xSmHSeM-21" value="Explore-RPC" style="rounded=1;whiteSpace=wrap;html=1;" vertex="1" parent="1">
          <mxGeometry x="10" y="280" width="120" height="30" as="geometry" />
        </mxCell>
        <mxCell id="XCnNXTIFXbrZ1xSmHSeM-23" value="Database" style="text;html=1;align=center;verticalAlign=middle;whiteSpace=wrap;rounded=0;" vertex="1" parent="1">
          <mxGeometry x="155" y="550" width="60" height="30" as="geometry" />
        </mxCell>
        <mxCell id="XCnNXTIFXbrZ1xSmHSeM-24" value="Domain" style="text;html=1;align=center;verticalAlign=middle;whiteSpace=wrap;rounded=0;" vertex="1" parent="1">
          <mxGeometry x="575" y="550" width="60" height="30" as="geometry" />
        </mxCell>
      </root>
    </mxGraphModel>
  </diagram>
</mxfile>
